# xmcd
#
# Track frame offsets: 
#        150
#        14199
#        24960
#        38695
#        54320
#        67874
#        81947
#        96914
#        109975
#        120055
#        130153
#        143615
#        153618
#        167437
#
# Disc length: 2427 seconds
#
# Revision: 0
# Processed by: cddbd v1.5.2PL0 Copyright (c) Steve Scherf et al.
# Submitted via: ExactAudioCopy v0.99pb4
#
DISCID=a909790e
DTITLE=Wayne Taylor - Wayne Taylor and Appaloosa
DYEAR=2009
DGENRE=Bluegrass
TTITLE0=Bury Me In Dixie
TTITLE1=When I'm Gone
TTITLE2=Any Way I Please
TTITLE3=Rabbit
TTITLE4=Cold, Cold River
TTITLE5=Oh Merrie
TTITLE6=Heaven's Door
TTITLE7=40 Years
TTITLE8=Dancin' With Judy
TTITLE9=Dan't Be Waitin'
TTITLE10=Jesus And Me
TTITLE11=When
TTITLE12=I'm Gonna Be (500 Miles)
TTITLE13=Dirt Roads
EXTD=
EXTT0=
EXTT1=
EXTT2=
EXTT3=
EXTT4=
EXTT5=
EXTT6=
EXTT7=
EXTT8=
EXTT9=
EXTT10=
EXTT11=
EXTT12=
EXTT13=
PLAYORDER=
